<?xml version="1.0" encoding="iso-8859-1"?>
<!-- Generator: Adobe Illustrator 23.0.1, SVG Export Plug-In . SVG Version: 6.00 Build 0)  -->
<svg version="1.1" id="Layer_1" xmlns="http://www.w3.org/2000/svg" xmlns:xlink="http://www.w3.org/1999/xlink" x="0px" y="0px"
	 viewBox="0 0 512 512" style="enable-background:new 0 0 512 512;" xml:space="preserve">
<g>
	<g>
		<g>
			<path style="fill:#4D4E4E;" d="M170.247,389.904c0,2.055,0.411,3.699,1.233,4.658c0.822,0.959,2.192,1.37,4.11,1.37h20v-19.178
				c0-7.397,3.425-11.096,10.411-11.096h13.151v23.973c0,7.397-3.425,11.096-10.411,11.096h-33.014
				c-6.986,0-10.411-3.698-10.411-11.096v-9.726l4.932-3.151V389.904z M200.657,395.932h8.219c1.918,0,3.425-0.411,4.11-1.37
				c0.822-0.959,1.233-2.466,1.233-4.658v-19.452H206c-1.918,0-3.425,0.411-4.11,1.37c-0.822,0.959-1.233,2.466-1.233,4.657V395.932
				z M204.356,353.055c0-0.959,0.274-1.644,0.959-2.329c0.685-0.685,1.37-0.959,2.329-0.959c0.959,0,1.644,0.274,2.329,0.959
				c0.685,0.685,0.959,1.37,0.959,2.329c0,0.959-0.274,1.644-0.959,2.329c-0.685,0.685-1.37,0.959-2.329,0.959
				c-0.959,0-1.644-0.274-2.329-0.959C204.767,354.699,204.356,353.877,204.356,353.055"/>
			<path style="fill:#4D4E4E;" d="M229.151,376.754c0-7.397,3.425-11.096,10.411-11.096h13.151v36.301
				c0,2.603-0.274,4.932-0.685,6.986c-0.548,2.055-1.37,3.836-2.603,5.342c-1.233,1.507-2.877,2.74-4.932,3.562
				c-2.055,0.959-4.794,1.507-7.945,1.644l-3.151-4.383c4.931-0.137,8.63-1.096,10.959-3.014c2.329-1.781,3.562-4.795,3.562-8.767
				v-2.603h-8.219c-6.986,0-10.411-3.698-10.411-11.096v-12.877H229.151z M234.082,389.904c0,2.055,0.411,3.699,1.233,4.658
				c0.822,0.959,2.192,1.37,4.11,1.37h8.219v-25.479h-8.219c-1.918,0-3.425,0.411-4.11,1.37c-0.822,0.959-1.233,2.466-1.233,4.658
				V389.904z"/>
			<path style="fill:#4D4E4E;" d="M272.438,404.562c0,1.918-0.137,3.698-0.411,5.206c-0.274,1.507-0.822,2.74-1.507,3.835
				c-0.685,1.096-1.644,2.192-2.877,3.151c-1.233,0.959-2.74,1.918-4.658,2.877l-3.562-4.521c1.507-0.685,2.876-1.37,3.835-2.055
				c0.959-0.685,1.781-1.37,2.466-2.055c0.548-0.822,0.959-1.644,1.233-2.603c0.274-0.959,0.411-2.192,0.411-3.699v-39.041h4.932
				v30.274h4.11v4.932h-4.11v3.698H272.438z"/>
			<path style="fill:#4D4E4E;" d="M300.247,398.671c-1.507,1.37-3.562,2.055-5.89,2.055h-18.219v-4.931h20.548
				c-1.918-2.466-3.836-4.521-5.617-6.575c-1.781-1.918-4.11-4.11-6.849-6.438v-0.959c0-2.466,0.411-4.794,1.233-6.849
				c0.822-2.055,1.918-3.836,3.288-5.343c1.507-1.507,3.15-2.603,5.205-3.424c1.918-0.822,4.11-1.233,6.438-1.233
				c2.329,0,4.521,0.411,6.438,1.233c1.918,0.822,3.699,1.918,5.206,3.424c1.507,1.507,2.603,3.288,3.288,5.343
				c0.822,2.055,1.233,4.247,1.233,6.849v0.959c-2.74,2.329-5.069,4.521-6.849,6.438c-1.781,1.918-3.698,4.109-5.616,6.575h17.397
				v4.931h-15.069C303.671,400.863,301.753,400.178,300.247,398.671 M300.247,392.781c1.096-1.507,2.192-2.74,3.014-3.836
				c0.959-1.096,1.781-2.055,2.603-3.014c0.822-0.959,1.781-1.918,2.603-2.74l2.877-2.877c-0.411-3.014-1.507-5.479-3.698-7.26
				c-2.055-1.781-4.521-2.74-7.535-2.74c-2.877,0-5.342,0.959-7.534,2.74c-2.055,1.781-3.288,4.247-3.699,7.26l2.877,2.877
				c0.822,0.822,1.781,1.781,2.603,2.74c0.822,0.959,1.781,1.918,2.602,3.014C298.055,390.041,299.014,391.274,300.247,392.781"/>
			<path style="fill:#4D4E4E;" d="M328.74,376.617c0-3.698,0.959-6.575,3.014-8.493c1.918-1.918,4.931-2.877,8.767-2.877
				c3.836,0,6.712,0.959,8.767,2.877c2.055,1.918,3.014,4.794,3.014,8.493v21.781c0,7.534-3.973,11.233-11.918,11.233
				c-3.151,0-5.753-0.685-7.808-2.055c-2.055-1.37-3.288-3.699-3.836-6.713h-8.082v-4.932h8.082V376.617z M333.671,398.397
				c0,2.329,0.548,3.836,1.644,4.932c1.096,0.959,2.74,1.507,5.069,1.507c2.466,0,4.11-0.548,5.206-1.507
				c1.096-0.959,1.644-2.603,1.644-4.932v-21.918c0-2.329-0.548-3.835-1.644-4.931c-1.096-0.959-2.877-1.507-5.206-1.507
				c-2.328,0-3.972,0.548-5.069,1.507c-1.096,0.959-1.644,2.603-1.644,4.931V398.397z"/>
			<path style="fill:#4D4E4E;" d="M190.383,445.521l0.548-6.301l-7.945,23.973c-0.548,1.37-1.644,2.192-3.014,2.192
				c-1.096,0-2.329-0.685-3.014-2.055l-7.671-24.795l0.548,6.849v35.069h-4.521v-45.206c-0.137-4.795,6.301-4.657,7.26-0.959
				c3.014,9.178,4.658,16.849,7.26,26.027c2.877-8.63,5.205-17.945,7.808-26.164c1.37-3.973,6.986-3.836,7.26,0.959v45.342h-4.52
				v-0.274h-0.137v-34.658H190.383z"/>
			<path style="fill:#4D4E4E;" d="M221.89,463.466H208.74c-2.329,9.178-3.562,13.562-4.384,17.123h-4.795l11.644-45.89
				c0.685-2.192,2.466-3.425,4.11-3.425c1.507,0,3.425,1.37,3.972,3.288l11.918,46.028h-4.932L221.89,463.466z M215.589,436.205
				l-5.753,22.74h10.959L215.589,436.205z M215.452,435.658l0.137,0.685c0-0.137,0-0.274,0.137-0.411L215.452,435.658z"/>
			<path style="fill:#4D4E4E;" d="M239.836,431.822h9.726c6.439,0,11.096,4.795,11.096,11.096v7.397
				c0,3.424-3.288,8.493-7.534,9.041c4.658,0.685,7.671,5.617,7.671,9.178v12.192h-4.521v-12.192c0-3.836-4.521-6.849-8.219-6.849
				h-7.808v18.904h-4.521v-44.794C235.863,433.466,237.37,431.822,239.836,431.822 M240.247,436.343v-0.274
				c-0.137,0.137-0.137,0.274-0.411,0.274H240.247z M240.247,436.343v20.822h7.945c3.562,0,7.945-2.877,7.945-6.712v-7.397
				c0-3.562-2.877-6.575-6.575-6.575h-9.315V436.343z"/>
			<path style="fill:#4D4E4E;" d="M266.548,442.781c0-7.534,6.301-11.37,12.877-11.37c6.438,0,12.877,3.836,12.877,11.37v26.712
				c0,7.671-6.439,11.507-12.877,11.507c-6.439,0-12.877-3.836-12.877-11.507V442.781z M271.069,469.493
				c0,4.658,4.11,6.986,8.356,6.986c4.246,0,8.356-2.329,8.356-6.986v-26.712c0-4.52-4.11-6.849-8.356-6.849
				c-4.247,0-8.356,2.329-8.356,6.849V469.493z"/>
			<path style="fill:#4D4E4E;" d="M298.74,442.781c0-7.534,6.301-11.37,12.877-11.37c6.438,0,12.877,3.836,12.877,11.37v26.712
				c0,7.671-6.438,11.507-12.877,11.507c-6.439,0-12.877-3.836-12.877-11.507V442.781z M303.26,469.493
				c0,4.658,4.11,6.986,8.356,6.986s8.356-2.329,8.356-6.986v-26.712c0-4.52-4.11-6.849-8.356-6.849s-8.356,2.329-8.356,6.849
				V469.493z"/>
			<path style="fill:#4D4E4E;" d="M352.301,436.343l-16.849,0.137v16.849h15.753v4.521h-15.616v22.74h-4.521v-44.794
				c0-2.329,2.055-3.973,4.11-3.973h17.26v4.521H352.301z"/>
			<g style="opacity:0.52;enable-background:new    ;">
				<g>
					<path style="fill:#CAC9C9;" d="M256,31c-79.863,0-144.521,65.068-144.521,145.206c0,80.274,64.658,145.342,144.521,145.342
						c79.863,0,144.52-65.068,144.52-145.342C400.521,96.068,335.863,31,256,31 M332.027,209.63
						c-2.055,4.795-4.521,9.315-7.534,13.562c-0.822,1.37-1.781,2.74-2.74,3.973c-6.438,8.63-14.521,15.89-24.247,21.644
						l-0.685,0.411c-0.548,0.274-1.918,0.822-3.836,1.644c-2.192,1.096-4.384,2.192-6.575,3.014c-10,4.11-20.685,6.028-31.918,6.028
						h-0.822c-0.822,0-2.466-0.411-5.205-0.685c-2.74-0.274-6.027-1.096-10.137-2.192c-0.685-0.137-1.507-0.548-2.192-0.685
						c3.425-4.247,6.575-9.041,8.219-13.014c3.424,0.548,6.849,0.959,10.548,1.096c1.507,0,3.014,0,4.658-0.137
						c1.507-0.137,3.014-0.137,4.247-0.137c5.753-0.685,11.37-2.192,16.575-4.11v-0.137c2.877-1.096,5.891-2.466,8.767-4.11
						c0.548-0.274,1.233-0.685,1.781-1.096c0.959-0.685,2.055-1.233,2.877-1.918c0.822-0.548,1.507-1.096,2.329-1.507
						c3.562-2.603,6.849-5.48,9.863-8.767c0.137-0.137,0.137-0.137,0.274-0.274c0.411-0.548,0.822-0.959,1.233-1.507
						c2.329-2.74,4.384-5.479,6.165-8.63c4.11-6.986,6.986-14.384,8.63-22.192c1.644-7.808,1.781-15.753,0.411-23.835
						c-1.233-8.082-3.973-15.754-8.082-23.151c-4.932-8.082-10.959-14.932-18.082-20.274c-7.123-5.479-14.932-9.178-23.288-11.37
						c-7.534-1.918-15.343-2.74-23.425-2.055c-0.548,0.137-1.233,0.137-1.781,0.274c-8.219,0.959-15.89,3.425-23.151,7.26
						c-7.123,3.698-13.425,8.63-18.904,14.521c-5.206,5.753-9.726,12.465-12.877,19.863c-0.137,0.274-0.274,0.548-0.274,0.822
						c0,0.137-0.137,0.274-0.137,0.411c-1.37,3.562-2.466,7.397-3.288,11.233c-1.507,7.808-1.918,16.027-0.685,24.247
						c1.233,8.219,3.836,16.164,8.219,23.425l0.137,0.274c2.466,4.11,1.37,7.808-2.603,10.137c-1.918,1.233-3.836,1.37-5.89,0.822
						c-2.055-0.548-3.562-1.918-4.795-3.836c-5.617-9.863-9.041-20.137-10.411-31.096c-0.685-5.479-0.822-10.822-0.411-16.164
						c0.685-9.726,3.014-19.041,6.986-27.808c2.466-5.479,5.479-10.548,8.904-15.342c0.274-0.411,0.548-0.685,0.822-1.096
						c6.439-8.904,14.658-16.028,24.521-21.644c17.671-10.137,36.301-13.425,55.617-10c13.014,2.055,24.795,7.123,35.342,14.932
						c0.274,0.274,0.548,0.411,0.959,0.685c6.575,4.931,12.192,10.685,16.849,17.26c4.11,5.617,7.534,11.644,10.137,18.082
						c4.11,10.137,6.027,20.685,5.753,31.781C338.466,189.219,336.274,199.767,332.027,209.63 M241.753,176.342
						c0-7.808,6.301-14.109,14.11-14.109c7.808,0,14.11,6.301,14.11,14.109c0,7.808-6.301,14.11-14.11,14.11
						C248.055,190.452,241.753,184.014,241.753,176.342"/>
				</g>
			</g>
		</g>
		<g>
			<defs>
				<path id="SVGID_1_" d="M249.973,198.26c-5.891-1.507-10.548-5.069-13.288-10.411c-2.603-4.52-3.562-9.589-2.603-14.794
					c0.959-5.205,3.698-9.589,7.808-12.877l1.096-0.685l1.644-0.959c4.932-3.014,10.685-3.698,16.576-2.329
					c5.89,1.507,10.548,4.931,13.425,9.863l0.274,0.548c2.466,4.932,3.151,10.137,2.055,15.068
					c-1.096,4.658-3.425,8.63-6.986,11.918c-0.959,1.096-2.055,1.918-3.288,2.74l-0.548,0.274
					c-3.151,1.644-6.712,2.466-10.137,2.466C253.945,199.082,252.028,198.808,249.973,198.26 M238.74,44.014
					c-17.26,2.329-33.836,7.945-49.452,16.986c-15.753,9.178-29.178,20.959-39.863,34.932
					c-10.548,14.246-18.219,29.863-22.877,46.438c-4.521,16.576-5.891,33.836-3.836,51.37c2.055,17.534,7.534,34.521,16.575,50.411
					c3.836,6.438,8.767,11.781,14.658,15.754c6.027,4.109,12.603,6.849,19.589,8.493c7.123,1.507,14.384,1.781,21.78,0.822
					c7.261-0.959,14.247-3.425,20.685-7.26l3.698-2.192c0.822-0.548,1.507-0.959,2.055-1.507l0.411-0.274
					c6.301-5.069,11.233-10.959,14.794-17.671l2.877-5.479l6.027,1.096c13.835,2.329,26.712,0,39.452-6.986
					c0.959-0.548,2.055-1.233,3.014-2.055c1.37-0.959,2.602-1.781,3.698-2.466c5.754-4.52,10.411-9.726,13.973-15.616
					c3.699-6.165,6.301-12.74,7.671-19.589c1.37-6.849,1.644-13.836,0.548-20.959c-1.096-6.986-3.425-13.973-6.987-20.411
					c-4.109-6.986-9.452-13.014-15.753-17.808c-6.164-4.795-13.014-8.082-20.274-10c-7.26-1.918-14.932-2.466-22.877-1.644
					c-7.671,0.822-15.206,3.425-22.329,7.671l-3.698,2.192c-0.959,0.548-1.781,1.233-2.603,1.918l-0.274,0.137
					c-5.753,4.384-10.548,9.726-14.246,15.753c-3.699,6.028-6.301,12.466-7.671,19.315c-1.37,6.849-1.644,13.973-0.548,21.233
					c0.959,7.123,3.425,13.836,7.123,20.137l0.548,1.096c3.836,8.356,1.507,16.438-6.301,20.959
					c-3.972,2.329-8.493,3.014-12.74,1.644c-3.972-1.233-7.397-3.836-9.589-7.671c-6.165-10.959-10-22.466-11.37-34.384
					c-1.37-11.918-0.411-23.699,2.74-34.931c3.151-11.096,8.356-21.644,15.48-31.233c7.26-9.726,16.438-17.809,27.26-23.836
					c21.781-12.329,45.069-15.342,69.041-9.041c11.781,3.151,22.466,8.493,32.055,15.754c9.589,7.26,17.534,16.301,23.425,26.986
					c6.027,10.685,9.863,22.055,11.507,33.836c1.507,11.781,0.548,23.836-2.877,35.617c-3.151,11.507-8.904,21.918-15.479,31.781
					c-14.932,22.055-21.233,34.795-72.877,77.534c0,0,14.658-0.685,20.959-1.78c8.767-1.507,16.575-3.288,23.151-5.342
					c6.575-2.466,11.918-4.384,15.753-6.301c5.342-2.603,7.123-3.562,7.808-3.973c4.932-3.014,9.863-6.301,14.384-9.863
					c23.973-18.219,40.137-42.055,47.945-71.096c4.794-17.397,6.027-34.932,3.836-52.055c-2.329-17.26-7.945-33.973-16.712-49.863
					c-8.768-15.753-20.274-29.041-34.11-39.452c-14.109-10.548-29.863-18.493-47.123-23.425c-11.617-3.227-23.36-4.841-35.058-4.841
					C250.054,42.872,244.383,43.252,238.74,44.014"/>
			</defs>
			<clipPath id="SVGID_2_">
				<use xlink:href="#SVGID_1_"  style="overflow:visible;"/>
			</clipPath>
			
				<linearGradient id="SVGID_3_" gradientUnits="userSpaceOnUse" x1="-703.6241" y1="1216.2212" x2="-703.3738" y2="1216.2212" gradientTransform="matrix(1071.0209 0 0 1071.0209 753717.875 -1302421.5)">
				<stop  offset="0" style="stop-color:#2B327A"/>
				<stop  offset="0.2207" style="stop-color:#2A437B"/>
				<stop  offset="0.6566" style="stop-color:#26707E"/>
				<stop  offset="1" style="stop-color:#239780"/>
			</linearGradient>
			<rect x="120.657" y="42.872" style="clip-path:url(#SVGID_2_);fill:url(#SVGID_3_);" width="270.274" height="267.991"/>
		</g>
	</g>
</g>
</svg>
