<svg xmlns="http://www.w3.org/2000/svg" width="80" height="80" viewBox="0 0 457 186">
    <g fill="none" transform="translate(0 .287)">
        <path fill="#000"
            d="M284.98 95.4113164C281.624783 92.0973168 276.396432 91.6133258 272.489886 94.2551004 268.58334 96.8968751 267.085499 101.929407 268.911664 106.277418 270.737828 110.625428 275.379913 113.079191 280.001234 112.139262 284.622555 111.199333 287.937344 107.127223 287.92 102.411316 287.947083 99.7724223 286.883244 97.2394731 284.98 95.4113164L284.98 95.4113164ZM308.34 95.4113164C304.983537 92.0659405 299.73091 91.5584923 295.796114 94.1994709 291.861319 96.8404495 290.341015 101.893792 292.165452 106.267442 293.989889 110.641092 298.65058 113.116077 303.295727 112.177994 307.940873 111.239911 311.275833 107.150212 311.26 102.411316 311.289925 99.7758664 310.233885 97.2442627 308.34 95.4113164L308.34 95.4113164ZM310.75 28.0213164 298.75 28.0213164M353.66 2.8713164C350.301178-.454701549 345.062114-.94874385 341.140746 1.6907542 337.219378 4.33025224 335.705135 9.36998846 337.522316 13.7336948 339.339497 18.0974011 343.983254 20.5727579 348.619026 19.6488009 353.254798 18.7248439 356.59468 14.6582658 356.6 9.9313164 356.64255 7.27189438 355.577567 4.71448565 353.66 2.8713164L353.66 2.8713164ZM440.71 24.3813164C445.515744 27.3467043 449.446679 31.5364803 452.1 36.5213164 454.899435 41.7459822 456.330564 47.594345 456.26 53.5213164 456.415572 59.3275965 454.995266 65.0675674 452.15 70.1313164 449.57488 74.6067693 445.794712 78.2691325 441.24 80.7013164 436.649711 83.1337385 431.524701 84.3814775 426.33 84.3313164 422.065933 84.3239107 417.83585 83.5726478 413.83 82.1113164 409.646993 80.5794189 405.772405 78.3102108 402.39 75.4113164 400.027967 78.3199093 396.984668 80.6006664 393.53 82.0513164 389.792248 83.6045423 385.777333 84.3803054 381.73 84.3313164 379.244209 84.4034848 376.833661 83.4738564 375.04 81.7513164 373.27683 80.1198807 372.294421 77.8130395 372.34 75.4113164 372.260887 73.0974732 373.204616 70.8661756 374.92 69.3113164 376.806754 67.687328 379.243234 66.8465455 381.73 66.9613164 383.737609 67.0852458 385.737311 66.6157506 387.48 65.6113164 388.805724 64.7164629 389.813939 63.4246871 390.36 61.9213164 391.161521 59.5337281 391.829225 57.1032855 392.36 54.6413164 393.14 51.2679831 393.686667 49.0779831 394 48.0713164 396.44 39.1579831 400.273333 32.2379831 405.5 27.3113164 410.58301 22.4255188 417.401169 19.7630184 424.45 19.9113164 430.184205 19.82938 435.823497 21.3796651 440.71 24.3813164L440.71 24.3813164ZM434.31 64.3813164C437.13 61.8413164 438.54 58.2213164 438.54 53.5213164 438.690788 49.3858932 437.30907 45.3404498 434.66 42.1613164 432.123802 39.1710434 428.358632 37.5058212 424.44 37.6413164 421.494095 37.5329909 418.646881 38.7120298 416.64 40.8713164 414.64 43.0179831 412.86 46.4413164 411.3 51.1413164 410.502719 53.4712306 409.913743 55.8672924 409.54 58.3013164 409.360058 58.9346905 409.22308 59.5794898 409.13 60.2313164 408.980166 61.090423 408.762826 61.9363779 408.48 62.7613164 410.692253 64.5315636 413.196492 65.9021266 415.88 66.8113164 418.368738 67.6818471 420.983507 68.1379114 423.62 68.1613164 427.54167 68.308003 431.369433 66.9401772 434.31 64.3413164L434.31 64.3813164Z">
        </path>
        <path fill="#000"
            d="M383.81 66.9813164 383.81 84.3513164 355.74 84.3513164C355.74 92.7246497 353.86 99.0579831 350.1 103.351316 346.34 107.64465 340.98 109.797983 334.02 109.811316 328.985537 109.737628 323.994205 108.870303 319.23 107.241316L322.66 91.9913164C325.420856 92.7282391 328.254754 93.1575159 331.11 93.2713164 333.53 93.2713164 335.3 92.6113164 336.38 91.2713164 337.46 89.9313164 338.04 87.6413164 338.04 84.3413164L338.04 28.0213164 355.76 28.0213164 355.76 67.0213164 383.81 66.9813164ZM310.75 28.0213164 310.75 84.3513164 242.66 84.3513164C240.177835 84.4196552 237.771819 83.4903852 235.98 81.7713164 234.217318 80.1437226 233.234721 77.8400781 233.28 75.4413164 233.199286 73.1242782 234.143037 70.8892703 235.86 69.3313164 237.742135 67.7061597 240.176042 66.8650301 242.66 66.9813164L292.99 66.9813164 292.99 27.9813164 310.75 28.0213164Z">
        </path>
        <path fill="#000"
            d="M255.24,66.9813164 L255.24,84.3513164 L183.99,84.3513164 L183.99,66.9813164 L225.66,66.9813164 L225.66,54.9813164 C225.66,49.0279831 223.326667,44.4879831 218.66,41.3613164 C214.910622,38.9583282 210.649813,37.468415 206.22,37.0113164 C204.4923,36.7876248 202.752119,36.6740622 201.01,36.6713164 L190.59,36.6713164 L190.59,19.7013164 L203.23,19.7013164 C204.05,19.7013164 204.72,19.7013164 205.23,19.7013164 C212.212055,19.537521 219.137939,20.9849759 225.47,23.9313164 C231.031552,26.5617556 235.662719,30.8197782 238.75,36.1413164 C241.950259,41.9124309 243.548822,48.4344292 243.38,55.0313164 L243.38,67.0313164 L255.24,66.9813164 Z">
        </path>
        <polygon fill="#000" points="200.97 36.681 200.97 36.701 190.55 36.681" opacity=".41"></polygon>
        <circle cx="147.47" cy="58.881" r="25.14" fill="#1E9AD6"></circle>
        <circle cx="85.6" cy="58.881" r="25.14" fill="#E91C48"></circle>
        <circle cx="25.14" cy="58.881" r="25.14" fill="#FFC908"></circle>
        <path fill="#000"
            d="M102.01 146.391316 102.01 185.701316 84.85 185.701316 84.85 150.821316C84.85 142.101316 80.28 136.561316 72.85 136.561316 65.1 136.561316 59.56 142.561316 59.56 151.511316L59.56 185.701316 42.36 185.701316 42.36 150.821316C42.36 142.101316 37.79 136.561316 30.45 136.561316 22.7 136.561316 17.16 142.561316 17.16 151.511316L17.16 185.701316 2.84217094e-14 185.701316 2.84217094e-14 122.581316 16.47 122.581316 16.47 129.921316C20.21 124.801316 27.13 120.921316 35.85 120.921316 44.57 120.921316 51.91 124.921316 56.06 131.581316 60.77 124.521316 69.35 120.921316 78.21 120.921316 92.6 120.921316 102.01 131.441316 102.01 146.391316ZM139.37 122.641316C146.492987 122.465067 153.311583 125.528654 157.91 130.971316L157.91 124.261316 174.03 124.261316 174.03 185.701316 157.91 185.701316 157.91 177.511316C153.307453 182.857824 146.552838 185.862729 139.5 185.701316 122.84 185.701316 110.75 171.871316 110.75 154.271316 110.75 136.671316 122.84 122.641316 139.37 122.641316ZM142.46 171.011316C151.06 171.011316 157.46 164.291316 157.46 154.221316 157.46 144.151316 151.02 137.421316 142.46 137.421316 134.26 137.421316 127.95 144.141316 127.95 154.221316 127.95 164.301316 134.26 171.011316 142.46 171.011316L142.46 171.011316ZM184.66 123.961316 238.75 123.961316 238.75 131.531316C238.750575 134.227005 237.753139 136.827464 235.95 138.831316L207.62 170.441316 238.86 170.441316 238.86 185.701316 183.259999 185.701316 183.259999 176.701316C183.258916 174.952312 183.903438 173.264448 185.07 171.961316L214.38 139.131316 192.38 139.131316C188.083225 139.131316 184.6 135.648092 184.6 131.351316L184.66 123.961316ZM251.32 138.791316C253.762457 132.914102 258.354525 128.189708 264.16 125.581316 288.24 114.871316 310.24 131.321316 310.24 153.061316 310.270113 155.188782 310.133024 157.315326 309.83 159.421316L265.34 159.421316C267.09 167.121316 272.77 171.861316 280.34 171.861316 286.83 171.861316 291.29 169.291316 292.78 164.861316L308.88 164.861316C306.45 176.321316 296.44 185.701316 279.4 185.701316 256.88 185.701316 241.14 163.371316 251.32 138.791316ZM265.32 148.321316 293.45 148.321316C292.1 140.621316 286.45 136.151316 279.92 136.151316 272.37 136.151316 267.09 141.021316 265.34 148.321316L265.32 148.321316ZM322.66 138.791316C325.102457 132.914102 329.694525 128.189708 335.5 125.581316 359.58 114.871316 381.58 131.321316 381.58 153.061316 381.610113 155.188782 381.473024 157.315326 381.17 159.421316L336.66 159.421316C338.41 167.121316 344.09 171.861316 351.66 171.861316 358.15 171.861316 362.66 169.291316 364.1 164.861316L380.2 164.861316C377.76 176.321316 367.75 185.701316 350.71 185.701316 328.19 185.701316 312.45 163.371316 322.66 138.791316ZM336.66 148.321316 364.79 148.321316C363.44 140.621316 357.79 136.151316 351.26 136.151316 343.66 136.151316 338.4 141.021316 336.66 148.321316L336.66 148.321316ZM421.25 121.701316C428.179612 121.524881 434.844981 124.363227 439.52 129.481316L439.52 88.7013164 456.42 88.7013164 456.42 184.131316 440.06 184.131316 440.06 177.321316C435.409544 182.774833 428.55555 185.851238 421.39 185.701316 404.48 185.701316 392.21 171.701316 392.21 153.801316 392.21 135.901316 404.48 121.701316 421.25 121.701316ZM424.39 170.781316C433.11 170.781316 439.65 164.101316 439.65 153.781316 439.65 143.461316 433.11 136.781316 424.39 136.781316 416.07 136.781316 409.66 143.461316 409.66 153.781316 409.66 164.101316 416.07 170.791316 424.39 170.791316L424.39 170.781316Z">
        </path>
    </g>
</svg>