<?xml version="1.0" encoding="iso-8859-1"?>
<!-- Generator: Adobe Illustrator 23.0.1, SVG Export Plug-In . SVG Version: 6.00 Build 0)  -->
<svg version="1.1" id="Layer_1" xmlns="http://www.w3.org/2000/svg" xmlns:xlink="http://www.w3.org/1999/xlink" x="0px" y="0px"
	 viewBox="0 0 512 512" style="enable-background:new 0 0 512 512;" xml:space="preserve">
<g>
	<path style="fill:#005B47;" d="M97.771,337.633h316.458c6.365,0,12.174,2.286,16.747,5.994V48.859
		c0-9.887-8.034-17.859-17.921-17.859H99.007c-9.887,0-17.921,7.972-17.921,17.859v294.768
		C85.597,339.857,91.406,337.633,97.771,337.633"/>
	<path style="fill:#FFFFFF;" d="M381.848,68.448c0-2.904-2.41-5.191-5.5-5.191s-5.5,2.286-5.5,5.191c0,2.966,2.348,5.191,5.5,5.191
		C379.5,73.701,381.848,71.415,381.848,68.448 M358.427,111.829h36.892V99.532c0-3.337-0.618-5.562-2.101-7.354
		c-1.607-1.916-4.14-2.904-7.601-2.904h-27.19L358.427,111.829L358.427,111.829z M287.362,137.104c-1.792,0-3.522-0.247-5.314-0.742
		l-1.051-0.247l2.163-7.972l0.989,0.247c1.421,0.371,1.916,0.433,2.904,0.433c3.646,0,4.82-1.236,4.82-8.404V76.173h8.342v35.656
		h49.808V76.111h8.342v4.882h27.19c6.365,0,10.505,1.669,13.966,5.623c2.595,2.966,4.079,7.539,4.079,12.977v20.578H299.35v0.433
		c0.309,6.303-0.865,10.814-3.461,13.533C293.109,137.104,289.215,137.104,287.362,137.104L287.362,137.104z M273.766,131.172
		c0-2.904-2.348-5.129-5.376-5.129c-2.966,0-5.314,2.286-5.314,5.129c0,2.904,2.286,5.067,5.314,5.067
		C271.48,136.239,273.766,134.076,273.766,131.172 M258.688,131.172c0-2.904-2.348-5.129-5.314-5.129
		c-2.966,0-5.314,2.286-5.314,5.129c0,2.904,2.286,5.067,5.314,5.067C256.402,136.239,258.688,134.076,258.688,131.172
		 M211.97,130.986c0-2.904-2.41-5.129-5.5-5.129s-5.5,2.286-5.5,5.129c0,2.966,2.348,5.191,5.5,5.191S211.97,134.014,211.97,130.986
		 M132.068,61.466c0-2.843-2.348-5.067-5.314-5.067s-5.314,2.225-5.314,5.067c0,2.904,2.286,5.129,5.314,5.129
		S132.068,64.37,132.068,61.466 M147.084,61.466c0-2.843-2.348-5.067-5.376-5.067c-2.966,0-5.314,2.225-5.314,5.067
		c0,2.904,2.286,5.129,5.314,5.129C144.798,66.595,147.084,64.37,147.084,61.466 M132.624,84.392
		c-7.601,0-15.758,5.253-15.758,13.781c0,9.455,7.91,13.657,15.758,13.657h5.067V84.392H132.624z M133.736,120.11
		c-18.601,0-25.213-11.803-25.213-21.938c0-12.977,10.938-22.061,26.634-22.061h2.534V72.28h8.342v39.55h56.296V76.111h8.281v35.718
		h52.465V76.111h8.157v43.999H133.736z"/>
	<path style="fill:#FFFFFF;" d="M403.6,147.98h-8.342v64.639h8.342V147.98z M137.506,176.963V204.4h-5.067
		c-7.848,0-15.758-4.202-15.758-13.657c0-8.466,8.157-13.781,15.758-13.781H137.506z M331.608,176.963V204.4h-12.236l-0.124-0.062
		c-5.438-3.213-8.59-8.157-8.59-13.719c0-8.899,7.786-13.657,15.14-13.657L331.608,176.963L331.608,176.963z M216.729,196.243
		c0,8.59-6.612,15.078-15.387,15.078c-8.281,0-14.831-6.612-14.831-15.078c0-8.528,6.489-15.202,14.831-15.202
		C210.24,181.041,216.729,187.468,216.729,196.243 M218.335,212.804l0.124-0.124h161.226V147.98h-8.342v56.358h-31.454v-35.656
		h-11.494c-15.82,0-26.016,8.59-26.016,21.938c0,5.006,1.607,9.393,4.758,13.039l0.618,0.68h-39.55v-35.656h-8.342V204.4h-36.274
		l0.185-0.556c0.803-2.348,1.236-4.882,1.236-7.477c0-13.41-10.196-23.606-23.668-23.606c-12.977,0-23.112,10.382-23.112,23.606
		c0,2.534,0.433,5.067,1.174,7.477l0.185,0.556h-33.741v-39.55h-8.342v3.831h-2.534c-15.696,0-26.634,9.084-26.634,22.061
		c0,10.629,6.983,21.938,26.634,21.938h49.684l0.124,0.124c4.388,4.449,10.258,6.921,16.5,6.921
		C207.768,219.664,214.009,217.192,218.335,212.804 M337.787,157.002c0-2.843-2.348-5.067-5.376-5.067
		c-2.966,0-5.314,2.225-5.314,5.067c0,2.904,2.286,5.129,5.314,5.129C335.439,162.132,337.787,159.907,337.787,157.002
		 M322.771,157.002c0-2.843-2.348-5.067-5.314-5.067c-2.966,0-5.314,2.225-5.314,5.067c0,2.904,2.286,5.129,5.314,5.129
		C320.484,162.132,322.771,159.907,322.771,157.002 M276.362,223.742c0-2.904-2.348-5.129-5.376-5.129
		c-2.966,0-5.314,2.286-5.314,5.129c0,2.904,2.286,5.067,5.314,5.067C274.075,228.81,276.362,226.647,276.362,223.742
		 M261.284,223.742c0-2.904-2.348-5.129-5.314-5.129c-2.966,0-5.314,2.286-5.314,5.129c0,2.904,2.286,5.067,5.314,5.067
		C258.997,228.81,261.284,226.585,261.284,223.742 M131.882,153.974c0-2.843-2.348-5.067-5.314-5.067
		c-2.966,0-5.314,2.225-5.314,5.067c0,2.904,2.286,5.129,5.314,5.129C129.596,159.104,131.882,156.941,131.882,153.974
		 M141.523,159.104c-3.028,0-5.314-2.225-5.314-5.129c0-2.843,2.348-5.067,5.314-5.067c3.028,0,5.376,2.225,5.376,5.067
		C146.899,156.941,144.612,159.104,141.523,159.104"/>
	<path style="fill:#FFFFFF;" d="M403.6,240.551h-8.342v64.639h8.342V240.551z M246.144,274.353h26.263
		c3.461,0,6.056,0.989,7.601,2.904c1.421,1.792,2.101,4.017,2.101,7.354v12.297h-36.027v-22.556H246.144z M344.152,288.814
		c0,8.59-6.612,15.078-15.387,15.078c-8.281,0-14.831-6.612-14.831-15.078c0-8.528,6.489-15.202,14.831-15.202
		C337.725,273.612,344.152,279.977,344.152,288.814 M345.821,305.313l0.124-0.124h33.741v-64.639h-8.342v56.358h-20.269l0.185-0.556
		c0.803-2.348,1.236-4.882,1.236-7.477c0-13.41-10.196-23.606-23.668-23.606c-12.977,0-23.112,10.382-23.112,23.606
		c0,2.534,0.371,5.067,1.174,7.477l0.185,0.556h-16.623v-12.297c0-5.438-1.421-10.011-4.079-12.977
		c-3.461-3.955-7.601-5.623-13.966-5.623h-26.263v-4.882h-8.342v35.718h-20.022v-56.358h-8.342v64.639h102.705l0.124,0.124
		c4.388,4.449,10.258,6.921,16.5,6.921C335.254,312.235,341.433,309.701,345.821,305.313 M268.699,253.528
		c0-2.904-2.41-5.191-5.5-5.191s-5.5,2.286-5.5,5.191c0,2.966,2.348,5.191,5.5,5.191
		C266.351,258.781,268.699,256.556,268.699,253.528 M187.19,249.45c0-2.904-2.41-5.191-5.5-5.191s-5.5,2.286-5.5,5.191
		c0,2.966,2.348,5.191,5.5,5.191C184.842,254.702,187.19,252.416,187.19,249.45 M137.691,269.472v27.438h-5.067
		c-7.848,0-15.758-4.202-15.758-13.657c0-8.466,8.157-13.781,15.758-13.781L137.691,269.472L137.691,269.472z M188.549,269.472
		v27.438h-12.236l-0.124-0.062c-5.438-3.213-8.59-8.157-8.59-13.719c0-6.612,5.314-13.657,15.14-13.657L188.549,269.472
		L188.549,269.472z M196.892,305.19v-43.999h-11.494c-15.82,0-26.016,8.59-26.016,21.938c0,5.005,1.607,9.393,4.758,13.039
		l0.618,0.68h-18.662v-39.55h-8.404v3.831h-2.534c-15.696,0-26.634,9.084-26.634,22.061c0,10.629,6.983,21.938,26.634,21.938h61.734
		V305.19z M132.068,246.545c0-2.843-2.348-5.067-5.314-5.067s-5.314,2.225-5.314,5.067c0,2.904,2.286,5.129,5.314,5.129
		S132.068,249.45,132.068,246.545 M141.708,251.674c-3.028,0-5.314-2.225-5.314-5.129c0-2.843,2.348-5.067,5.314-5.067
		c3.028,0,5.376,2.225,5.376,5.067C147.084,249.45,144.798,251.674,141.708,251.674"/>
	<path style="fill:#D4A007;" d="M413.055,481H98.945c-9.887,0-17.921-8.034-17.921-17.921v-98.194
		c0-9.887,8.034-17.921,17.921-17.921h314.11c9.887,0,17.921,8.034,17.921,17.921v98.194C430.976,472.966,422.942,481,413.055,481"
		/>
	<path style="fill:#FFFFFF;" d="M157.899,438.917l21.196-71.375h29.662c-9.826,29.6-30.96,93.003-31.207,93.003h-39.302
		c-0.247,0-21.381-63.403-31.207-93.003h29.662L157.899,438.917z"/>
	<polygon style="fill:#FFFFFF;" points="404.96,367.542 306.58,367.542 313.996,388.862 345.388,388.862 345.388,460.484 
		373.629,460.484 373.629,388.862 404.96,388.862 	"/>
	<path style="fill:#005B47;" d="M305.159,401.592l-3.028-6.55c-15.449,10.135-41.033,40.538-41.033,40.538l-9.393-10.567
		l-3.399,11.494l-0.433,1.669c3.584,5.129,13.348,22.308,13.348,22.308C283.901,419.389,305.159,401.592,305.159,401.592"/>
	<path style="fill:#FFFFFF;" d="M257.699,389.109l9.64,32.628c5.871-6.489,13.657-14.707,21.073-21.443
		c-6.118-18.292-11-32.752-11.123-32.752h-39.302c-0.247,0-21.381,63.403-31.207,93.003h29.662L257.699,389.109z"/>
	<path style="fill:#FFFFFF;" d="M274.755,446.518l4.14,13.966h29.662c-3.646-10.876-8.775-26.325-13.842-41.527
		C289.154,425.631,282.171,434.776,274.755,446.518"/>
</g>
</svg>
